<svg xmlns="http://www.w3.org/2000/svg" width="19.541" height="26.327" viewBox="0 0 19.541 26.327">
  <g id="map" transform="translate(-440 -151)">
    <g id="Path_1" data-name="Path 1" transform="translate(440 151)" fill="#fff">
      <path d="M 9.770303726196289 25.82728004455566 C 8.635143280029297 25.82728004455566 7.472573757171631 25.25949096679688 6.314883708953857 24.13968086242676 C 5.260343551635742 23.1196403503418 4.220233917236328 21.63457107543945 3.307023763656616 19.84502029418945 C 1.628053784370422 16.55490112304688 0.5000037550926208 12.50618076324463 0.5000037550926208 9.77030086517334 C 0.5000037550926208 4.65864086151123 4.65864372253418 0.5000009536743164 9.770303726196289 0.5000009536743164 C 14.8819637298584 0.5000009536743164 19.04060363769531 4.65864086151123 19.04060363769531 9.77030086517334 C 19.04060363769531 12.50618076324463 17.91255378723145 16.55490112304688 16.23358345031738 19.84502029418945 C 15.32037353515625 21.63457107543945 14.28026390075684 23.1196403503418 13.22572326660156 24.13968086242676 C 12.06803417205811 25.25949096679688 10.90546417236328 25.82728004455566 9.770303726196289 25.82728004455566 Z" stroke="none"/>
      <path d="M 9.770303726196289 1.000001907348633 C 4.934343338012695 1.000001907348633 1.000003814697266 4.934341430664062 1.000003814697266 9.770301818847656 C 1.000003814697266 12.39266109466553 2.131824493408203 16.44207000732422 3.752384185791016 19.61774063110352 C 5.604013442993164 23.24623107910156 7.797463417053223 25.3272819519043 9.770303726196289 25.3272819519043 C 11.74314308166504 25.3272819519043 13.93659400939941 23.24623107910156 15.78822326660156 19.61774063110352 C 17.40878295898438 16.44207000732422 18.54060363769531 12.39266109466553 18.54060363769531 9.770301818847656 C 18.54060363769531 4.934341430664062 14.60626411437988 1.000001907348633 9.770303726196289 1.000001907348633 M 9.770303726196289 1.9073486328125e-06 C 15.16629409790039 1.9073486328125e-06 19.54060363769531 4.374311447143555 19.54060363769531 9.770301818847656 C 19.54060363769531 15.16629123687744 15.16629409790039 26.32728004455566 9.770303726196289 26.32728004455566 C 4.374313354492188 26.32728004455566 3.814697265625e-06 15.16629123687744 3.814697265625e-06 9.770301818847656 C 3.814697265625e-06 4.374311447143555 4.374313354492188 1.9073486328125e-06 9.770303726196289 1.9073486328125e-06 Z" stroke="none" fill="#212121"/>
    </g>
    <g id="Ellipse_2" data-name="Ellipse 2" transform="translate(445.293 157.805)" fill="#fff" stroke="#000" stroke-width="1">
      <circle cx="4.537" cy="4.537" r="4.537" stroke="none"/>
      <circle cx="4.537" cy="4.537" r="4.037" fill="none"/>
    </g>
  </g>
</svg>
